<svg width="1440" height="900" viewBox="0 0 1440 900" fill="none" xmlns="http://www.w3.org/2000/svg">
<mask id="mask0" mask-type="alpha" maskUnits="userSpaceOnUse" x="0" y="0" width="1440" height="900">
<rect width="1440" height="900" fill="#388DFF"/>
</mask>
<g mask="url(#mask0)">
<path d="M1520 416C1505 334.404 1451.41 178.107 1357.03 205.683C1239.05 240.153 1192.56 441.478 1122.07 287.611C1051.58 133.745 1080.08 101.273 986.092 138.741C892.109 176.208 677.646 -99.5525 684.144 -160" stroke="url(#paint0_linear)" stroke-width="24"/>
<path d="M-96 452C-81.0026 533.596 -27.4119 689.893 66.9718 662.317C184.951 627.847 231.443 426.522 301.931 580.389C372.419 734.255 343.924 766.727 437.908 729.259C531.891 691.792 746.354 967.552 739.856 1028" stroke="url(#paint1_linear)" stroke-width="24"/>
</g>
<defs>
<linearGradient id="paint0_linear" x1="1102" y1="416" x2="684" y2="-160" gradientUnits="userSpaceOnUse">
<stop stop-color="#48BDFF"/>
<stop offset="1" stop-color="#28DC8E"/>
</linearGradient>
<linearGradient id="paint1_linear" x1="322" y1="452" x2="740" y2="1028" gradientUnits="userSpaceOnUse">
<stop stop-color="#48BDFF"/>
<stop offset="1" stop-color="#28DC8E"/>
</linearGradient>
</defs>
</svg>
