<svg width="32" height="32" viewBox="0 0 32 32" fill="none" xmlns="http://www.w3.org/2000/svg">
<rect width="32" height="32" rx="16" fill="#388DFF"/>
<path d="M17.5787 7.30258C17.3857 6.56931 16.7583 6 16 6V6C15.2417 6 14.6143 6.56931 14.4213 7.30258C13.5075 10.7741 10.7741 13.5075 7.30258 14.4213C6.56931 14.6143 6 15.2417 6 16V16C6 16.7583 6.56931 17.3857 7.30258 17.5787C10.7741 18.4925 13.5075 21.2259 14.4213 24.6974C14.6143 25.4307 15.2417 26 16 26V26C16.7583 26 17.3857 25.4307 17.5787 24.6974C18.4925 21.2259 21.2259 18.4925 24.6974 17.5787C25.4307 17.3857 26 16.7583 26 16V16C26 15.2417 25.4307 14.6143 24.6974 14.4213C21.2259 13.5075 18.4925 10.7741 17.5787 7.30258Z" fill="white"/>
</svg>
