<svg width="240" height="240" viewBox="0 0 240 240" fill="none" xmlns="http://www.w3.org/2000/svg">
<path d="M138.945 15.631C136.629 6.83173 129.099 0 120 0V0C110.901 0 103.371 6.83173 101.055 15.631C90.0897 57.2891 57.2891 90.0897 15.631 101.055C6.83173 103.371 0 110.901 0 120V120C0 129.099 6.83173 136.629 15.631 138.945C57.2891 149.91 90.0897 182.711 101.055 224.369C103.371 233.168 110.901 240 120 240V240C129.099 240 136.629 233.168 138.945 224.369C149.91 182.711 182.711 149.91 224.369 138.945C233.168 136.629 240 129.099 240 120V120C240 110.901 233.168 103.371 224.369 101.055C182.711 90.0897 149.91 57.2891 138.945 15.631Z" fill="white"/>
</svg>
